# xmcd
#
# Track frame offsets:
#	150
#	12715
#	24430
#	37037
#	49927
#	62282
#	75562
#	88087
#	99587
#	111135
#	120525
#	131975
#	142175
#	153887
#	164510
#
# Disc length: 2350 seconds
#
# Revision: 0
# Processed by: cddbd v1.4b42PL1 Copyright (c) Steve Scherf et al.
# Submitted via: EZCDDA 4.3.3.2
#
DISCID=ca092c0f
DTITLE=George Jones - White Lightnin'
DYEAR=1900
DGENRE=
TTITLE0=Lifetime to Regret
TTITLE1=She still thinks I care
TTITLE2=Brothers of a Bottle
TTITLE3=When I woke up from Dreaming
TTITLE4=The Selfishness of a Man
TTITLE5=Things Have Gone to Pieces
TTITLE6=Blue Side of Lonesome
TTITLE7=There's no Justice
TTITLE8=White Lightnin'
TTITLE9=World's Worst Lover
TTITLE10=Once a Day
TTITLE11=Back In My Baby's Arms Again
TTITLE12=I Can't Change Overnight
TTITLE13=Let a Little Lovin' Come In
TTITLE14=They'll Never Take Her Love From Me
EXTD=
EXTT0=
EXTT1=
EXTT2=
EXTT3=
EXTT4=
EXTT5=
EXTT6=
EXTT7=
EXTT8=
EXTT9=
EXTT10=
EXTT11=
EXTT12=
EXTT13=
EXTT14=
PLAYORDER=
